# xmcd
#
# Track frame offsets: 
#        150
#        17772
#        37568
#        55002
#        72137
#        92309
#        111693
#        130027
#        145215
#
# Disc length: 2247 seconds
#
# Revision: 0
# Processed by: cddbd v1.5PL3 Copyright (c) Steve Scherf et al.
# Submitted via: ExactAudioCopy v0.95a3
#
DISCID=6c08c509
DTITLE=Etta James - Etta James - Live in New York
DYEAR=2003
DGENRE=Blues
TTITLE0=Out On The Streets Again
TTITLE1=I'll Drown In My Own Tears
TTITLE2=I Can't Turn You Loose
TTITLE3=Dust Your Broom
TTITLE4=I'd Rather Go Blind
TTITLE5=Shake Your Boothy
TTITLE6=Respect Yourself
TTITLE7=Rock Me Baby
TTITLE8=Stormy Monday
EXTD=
EXTT0=
EXTT1=
EXTT2=
EXTT3=
EXTT4=
EXTT5=
EXTT6=
EXTT7=
EXTT8=
PLAYORDER=
